# xmcd
#
# Track frame offsets:
#	150
#	24607
#	45187
#	63977
#	88922
#	105190
#	124342
#	143220
#	156540
#	180775
#	203930
#	226602
#	249300
#	270890
#	292710
#	313120
#	330605
#
# Disc length: 4635 seconds
#
# Revision: 1
# Processed by: cddbd v1.5.1PL0 Copyright (c) Steve Scherf et al.
# Submitted via: CDex 1.50Beta5
#
DISCID=d9121911
DTITLE=Various Artist - PCヒッツ グレートキャニオン ベスト・セレクション 1990-1993
DYEAR=1900
DGENRE=Pop
TTITLE0=チェッカーズ/夜明けのブレス
TTITLE1=川村かおり/翼をください
TTITLE2=関口誠人/天河伝説殺人事件
TTITLE3=とんねるず/情けねえ
TTITLE4=やまだかつてないWINK/さよならだけどさよならじゃない
TTITLE5=工藤静香/メタモルフォーゼ
TTITLE6=牧瀬里穂/Miracle Love
TTITLE7=とんねるず/ガラガラヘビがやってくる
TTITLE8=THE ALFEE/Promised Love
TTITLE9=平松愛理/部屋とYシャツと私
TTITLE10=RABBIT/Thank you my Girl
TTITLE11=とんねるず/一番偉い人へ
TTITLE12=工藤静香/慟哭
TTITLE13=KAI FIVE/風の中の火のように
TTITLE14=加藤いづみ/好きになって、よかった
TTITLE15=藤井フミヤ/TRUE LOVE
TTITLE16=とんねるず/がじゃいも
EXTD=
EXTT0=
EXTT1=
EXTT2=
EXTT3=
EXTT4=
EXTT5=
EXTT6=
EXTT7=
EXTT8=
EXTT9=
EXTT10=
EXTT11=
EXTT12=
EXTT13=
EXTT14=
EXTT15=
EXTT16=
PLAYORDER=
